# Exported from Wings 3D 2.2.4
mtllib lavasphere.mtl
o lavasphere
#56 vertices, 80 faces
v -39.13359355 -0.33331400 12.71527533
v -40.92208504 -0.33331400 -4.30108445
v -35.63477625 -0.33331400 -20.57374766
v -30.57854823 -0.33331400 27.53304849
v -31.34182674 1.01870752 10.18357682
v -24.18589092 -0.33331400 -33.28902299
v -27.71281292 1.40796084 -9.00443876
v -19.37031419 1.01870752 -26.66095025
v -16.73619412 -0.33331400 37.59010744
v -17.12746031 1.40796084 23.57392671
v -15.67091337 2.25107246 5.09178841
v -8.55504533 -0.33331400 -40.24832383
v -9.68515710 2.25107246 -13.33047512
v 7.0255184e-15 -0.33331400 41.14749532
v -1.2749658e-15 1.40796084 -29.13897591
v -1.2749658e-15 1.01870752 32.95474685
v -1.2748462e-15 2.25107246 16.47737343
v -1.2892018e-15 2.70121770 -2.6759804e-15
v 8.55504533 -0.33331400 -40.24832383
v 9.68515710 2.25107246 -13.33047512
v 16.73619412 -0.33331400 37.59010744
v 17.12746031 1.40796084 23.57392671
v 15.67091337 2.25107246 5.09178841
v 19.37031419 1.01870752 -26.66095025
v 27.71281292 1.40796084 -9.00443876
v 24.18589092 -0.33331400 -33.28902299
v 30.57854823 -0.33331400 27.53304849
v 31.34182674 1.01870752 10.18357682
v 35.63477625 -0.33331400 -20.57374766
v 40.92208504 -0.33331400 -4.30108445
v 39.13359355 -0.33331400 12.71527533
v -39.13359355 -0.33331400 12.71527533
v -40.92208504 -0.33331400 -4.30108445
v -35.63477625 -0.33331400 -20.57374766
v -30.57854823 -0.33331400 27.53304849
v -24.18589092 -0.33331400 -33.28902299
v -16.73619412 -0.33331400 37.59010744
v -8.55504533 -0.33331400 -40.24832383
v -3.2014514e-15 -0.33331400 41.14749532
v 8.55504533 -0.33331400 -40.24832383
v 16.73619412 -0.33331400 37.59010744
v 24.18589092 -0.33331400 -33.28902299
v 30.57854823 -0.33331400 27.53304849
v 35.63477625 -0.33331400 -20.57374766
v 40.92208504 -0.33331400 -4.30108445
v 39.13359355 -0.33331400 12.71527533
v 7.83545668 2.70121770 2.54589421
v 4.84257855 2.70121770 -6.66523756
v -1.2820240e-15 2.70121770 8.23868671
v -4.84257855 2.70121770 -6.66523756
v -7.83545668 2.70121770 2.54589421
v -12.67803523 2.25107246 -4.11934336
v -7.83545668 2.25107246 10.78458092
v -1.7763568e-15 2.25107246 -13.33047512
v 7.83545668 2.25107246 10.78458092
v 12.67803523 2.25107246 -4.11934336
vn -0.15485515 0.98665507 5.0315489e-2
vn -0.14844784 0.98884978 -1.1804768e-2
vn -0.12703550 0.98884978 -7.7705195e-2
vn -0.11315816 0.98884978 9.6805711e-2
vn -0.11481351 0.99268635 3.7305171e-2
vn -9.5705748e-2 0.98665507 -0.13172766
vn -8.9537266e-2 0.99555849 -2.9092421e-2
vn -7.0958653e-2 0.99268635 -9.7666207e-2
vn -5.7099908e-2 0.98884978 0.13753441
vn -5.5337074e-2 0.99555849 7.6164948e-2
vn -5.4612117e-2 0.99834996 1.7744553e-2
vn -3.4645904e-2 0.98884978 -0.14483016
vn -3.3752145e-2 0.99834996 -4.6455842e-2
vn -1.0414573e-17 0.98665507 0.16282434
vn -7.9385329e-18 0.99555849 -9.4145053e-2
vn -3.5896305e-17 0.99268635 0.12072207
vn -1.9671312e-17 0.99834996 5.7422578e-2
vn 0.0000000e+0 1.00000000 1.2014019e-19
vn 3.4645904e-2 0.98884978 -0.14483016
vn 3.3752145e-2 0.99834996 -4.6455842e-2
vn 5.7099908e-2 0.98884978 0.13753441
vn 5.5337074e-2 0.99555849 7.6164948e-2
vn 5.4612117e-2 0.99834996 1.7744553e-2
vn 7.0958653e-2 0.99268635 -9.7666207e-2
vn 8.9537266e-2 0.99555849 -2.9092421e-2
vn 9.5705748e-2 0.98665507 -0.13172766
vn 0.11315816 0.98884978 9.6805711e-2
vn 0.11481351 0.99268635 3.7305171e-2
vn 0.12703550 0.98884978 -7.7705195e-2
vn 0.14844784 0.98884978 -1.1804768e-2
vn 0.15485515 0.98665507 5.0315489e-2
vn 0.0000000e+0 0.0000000e+0 0.0000000e+0
vn 0.0000000e+0 0.0000000e+0 0.0000000e+0
vn 0.0000000e+0 0.0000000e+0 0.0000000e+0
vn 0.0000000e+0 0.0000000e+0 0.0000000e+0
vn 0.0000000e+0 0.0000000e+0 0.0000000e+0
vn 0.0000000e+0 0.0000000e+0 0.0000000e+0
vn 0.0000000e+0 0.0000000e+0 0.0000000e+0
vn 0.0000000e+0 0.0000000e+0 0.0000000e+0
vn 0.0000000e+0 0.0000000e+0 0.0000000e+0
vn 0.0000000e+0 0.0000000e+0 0.0000000e+0
vn 0.0000000e+0 0.0000000e+0 0.0000000e+0
vn 0.0000000e+0 0.0000000e+0 0.0000000e+0
vn 0.0000000e+0 0.0000000e+0 0.0000000e+0
vn 0.0000000e+0 0.0000000e+0 0.0000000e+0
vn 0.0000000e+0 0.0000000e+0 0.0000000e+0
vn 3.4593349e-2 0.99933826 1.1240061e-2
vn 2.1379866e-2 0.99933826 -2.9426861e-2
vn 0.0000000e+0 0.99933826 3.6373600e-2
vn -2.1379866e-2 0.99933826 -2.9426861e-2
vn -3.4593349e-2 0.99933826 1.1240061e-2
vn -5.8712513e-2 0.99809264 -1.9076852e-2
vn -3.6286328e-2 0.99809264 4.9943846e-2
vn 0.0000000e+0 0.99809264 -6.1733989e-2
vn 3.6286328e-2 0.99809264 4.9943846e-2
vn 5.8712513e-2 0.99809264 -1.9076852e-2
g lavasphere_lavasphere_auv
usemtl lavasphere_auv
s 1
f 1//1 5//5 2//2
f 1//1 32//32 35//35 4//4
f 2//2 7//7 3//3
f 2//2 33//33 32//32 1//1
f 3//3 8//8 6//6
f 3//3 34//34 33//33 2//2
f 4//4 5//5 1//1
f 4//4 10//10 5//5
f 4//4 35//35 37//37 9//9
f 5//5 7//7 2//2
f 5//5 11//11 7//7
f 6//6 36//36 34//34 3//3
f 7//7 8//8 3//3
f 7//7 13//13 8//8
f 7//7 52//52 13//13
f 8//8 12//12 6//6
f 8//8 15//15 12//12
f 9//9 10//10 4//4
f 9//9 16//16 10//10
f 9//9 37//37 39//39 14//14
f 10//10 11//11 5//5
f 10//10 53//53 11//11
f 11//11 51//51 52//52
f 11//11 52//52 7//7
f 12//12 38//38 36//36 6//6
f 13//13 15//15 8//8
f 13//13 52//52 50//50
f 13//13 54//54 15//15
f 14//14 16//16 9//9
f 14//14 21//21 16//16
f 14//14 39//39 41//41 21//21
f 15//15 19//19 12//12
f 15//15 24//24 19//19
f 15//15 54//54 20//20
f 16//16 17//17 10//10
f 16//16 22//22 17//17
f 17//17 53//53 10//10
f 17//17 55//55 49//49
f 18//18 47//47 48//48
f 18//18 49//49 47//47
f 18//18 51//51 49//49
f 19//19 40//40 38//38 12//12
f 20//20 24//24 15//15
f 20//20 25//25 24//24
f 20//20 48//48 56//56
f 20//20 54//54 48//48
f 21//21 22//22 16//16
f 21//21 27//27 22//22
f 21//21 41//41 43//43 27//27
f 22//22 28//28 23//23
f 22//22 55//55 17//17
f 23//23 28//28 25//25
f 23//23 55//55 22//22
f 23//23 56//56 47//47
f 24//24 26//26 19//19
f 24//24 29//29 26//26
f 25//25 29//29 24//24
f 25//25 30//30 29//29
f 25//25 56//56 23//23
f 26//26 42//42 40//40 19//19
f 27//27 28//28 22//22
f 27//27 31//31 28//28
f 27//27 43//43 46//46 31//31
f 28//28 30//30 25//25
f 28//28 31//31 30//30
f 29//29 44//44 42//42 26//26
f 30//30 45//45 44//44 29//29
f 31//31 46//46 45//45 30//30
f 47//47 55//55 23//23
f 47//47 56//56 48//48
f 48//48 50//50 18//18
f 48//48 54//54 50//50
f 49//49 53//53 17//17
f 49//49 55//55 47//47
f 50//50 51//51 18//18
f 50//50 52//52 51//51
f 50//50 54//54 13//13
f 51//51 53//53 49//49
f 53//53 51//51 11//11
f 56//56 25//25 20//20
