# Blender v2.80 (sub 57) OBJ File: 'wizard (1).blend'
# www.blender.org
mtllib wizardhat.mtl
o Cylinder11.001
v 1.580843 4.860680 -4.722984
v 1.724324 4.555965 -4.634596
v 1.751009 4.560671 -4.675149
v 1.867805 4.251252 -4.546208
v 1.921175 4.260662 -4.627314
v 1.939546 4.098895 -4.502014
v 2.006258 4.110658 -4.603396
v 1.787932 4.237168 -4.492015
v 1.839704 4.081290 -4.434272
v 1.693714 4.220555 -4.472985
v 1.721932 4.060523 -4.410485
v 1.599497 4.203941 -4.492015
v 1.604160 4.039757 -4.434272
v 1.519623 4.189857 -4.546208
v 1.504318 4.022152 -4.502014
v 1.466253 4.180447 -4.627314
v 1.437606 4.010389 -4.603396
v 1.447512 4.177143 -4.722985
v 1.414180 4.006258 -4.722985
v 1.466253 4.180447 -4.818655
v 1.437606 4.010389 -4.842573
v 1.519623 4.189857 -4.899761
v 1.504318 4.022152 -4.943955
v 1.599497 4.203941 -4.953955
v 1.604160 4.039757 -5.011697
v 1.693714 4.220555 -4.972985
v 1.721932 4.060523 -5.035485
v 1.787932 4.237168 -4.953955
v 1.839704 4.081290 -5.011697
v 1.867805 4.251252 -4.899761
v 1.939546 4.098895 -4.943955
v 1.921175 4.260662 -4.818655
v 2.006258 4.110658 -4.842573
v 1.939916 4.263967 -4.722985
v 2.029685 4.114789 -4.722985
v 2.011286 3.946537 -4.457819
v 2.091341 3.960653 -4.579478
v 1.760380 4.562323 -4.722984
v 1.751009 4.560671 -4.770820
v 1.724324 4.555965 -4.811373
v 1.684387 4.548923 -4.838470
v 1.637279 4.540617 -4.847984
v 1.590170 4.532310 -4.838470
v 1.550233 4.525269 -4.811373
v 1.523548 4.520564 -4.770820
v 1.514178 4.518911 -4.722984
v 1.523548 4.520564 -4.675149
v 1.550233 4.525269 -4.634596
v 1.590170 4.532310 -4.607500
v 1.637279 4.540617 -4.597984
v 1.684387 4.548923 -4.607500
v 2.119453 3.965610 -4.722985
v 2.091341 3.960653 -4.866491
v 2.011286 3.946537 -4.988150
v 1.891476 3.925412 -5.069439
v 1.750150 3.900492 -5.097985
v 1.608824 3.875572 -5.069439
v 1.489013 3.854447 -4.988150
v 1.408958 3.840331 -4.866491
v 1.380847 3.835374 -4.722985
v 1.408958 3.840331 -4.579478
v 1.489013 3.854447 -4.457819
v 1.608824 3.875572 -4.376530
v 1.750150 3.900492 -4.347985
v 1.891476 3.925412 -4.376530
v 2.298989 3.667254 -4.722985
v 2.316419 3.677742 -4.722985
v 2.277514 3.670882 -4.524377
v 2.261507 3.660645 -4.531643
v 2.166721 3.651346 -4.356006
v 2.154768 3.641824 -4.369431
v 2.000907 3.622109 -4.243504
v 1.995020 3.613656 -4.261045
v 1.805318 3.587621 -4.203999
v 1.806586 3.580430 -4.222985
v 1.609728 3.553133 -4.243504
v 1.618151 3.547204 -4.261045
v 1.443914 3.523896 -4.356006
v 1.458403 3.519036 -4.369431
v 1.333121 3.504360 -4.524377
v 1.351664 3.500215 -4.531643
v 1.294216 3.497500 -4.722985
v 1.314182 3.493605 -4.722985
v 1.333121 3.504360 -4.921592
v 1.351664 3.500215 -4.914327
v 1.443914 3.523896 -5.089963
v 1.458403 3.519036 -5.076538
v 1.609728 3.553133 -5.202465
v 1.618151 3.547204 -5.184925
v 1.805318 3.587621 -5.241971
v 1.806586 3.580430 -5.222985
v 2.000907 3.622109 -5.202465
v 1.995020 3.613656 -5.184925
v 2.166721 3.651346 -5.089963
v 2.154768 3.641824 -5.076538
v 2.277514 3.670882 -4.921592
v 2.261507 3.660645 -4.914326
v 2.192430 3.820886 -4.897674
v 2.226650 3.826920 -4.722985
v 2.094980 3.803703 -4.400200
v 1.949135 3.777987 -4.301247
v 1.777100 3.747652 -4.266499
v 1.605064 3.717318 -4.301247
v 1.459219 3.691601 -4.400200
v 1.361769 3.674418 -4.548295
v 1.327549 3.668384 -4.722985
v 1.361769 3.674418 -4.897674
v 1.459219 3.691601 -5.045769
v 1.605064 3.717318 -5.144722
v 1.777100 3.747652 -5.179471
v 1.949135 3.777987 -5.144722
v 2.094980 3.803703 -5.045769
v 2.192430 3.820886 -4.548295
v 2.083027 3.794180 -4.413625
v 2.176424 3.810649 -4.555561
v 1.943248 3.769534 -4.318788
v 1.778368 3.740461 -4.285485
v 1.613487 3.711388 -4.318788
v 1.473708 3.686741 -4.413625
v 1.380311 3.670273 -4.555561
v 1.347514 3.664490 -4.722985
v 1.380311 3.670273 -4.890409
v 1.473708 3.686741 -5.032344
v 1.613487 3.711388 -5.127182
v 1.778368 3.740461 -5.160485
v 1.943248 3.769534 -5.127182
v 2.083027 3.794180 -5.032344
v 2.176424 3.810649 -4.890409
v 2.209221 3.816432 -4.722985
v 2.281641 3.654984 -4.817632
v 2.323088 3.678914 -4.817632
v 2.323088 3.678914 -4.628337
v 2.281641 3.654984 -4.628337
v 2.267444 3.679574 -4.789238
v 2.201190 3.794328 -4.789238
v 2.186993 3.818918 -4.817632
v 2.228440 3.842848 -4.628337
v 2.186993 3.818918 -4.628337
v 2.267444 3.679574 -4.656732
v 2.228440 3.842848 -4.817632
v 2.201190 3.794328 -4.656732
v 2.308891 3.703504 -4.789238
v 2.308891 3.703504 -4.656732
v 2.242637 3.818258 -4.656732
v 2.242637 3.818258 -4.789238
v 2.808758 3.655597 -4.722985
v 2.808758 3.655597 -4.722985
v 2.733794 3.642379 -5.105668
v 2.733794 3.642379 -5.105668
v 2.733794 3.642379 -4.340302
v 2.733794 3.642379 -4.340302
v 2.520314 3.604737 -4.015878
v 2.520314 3.604737 -4.015878
v 2.200820 3.548401 -3.799105
v 2.200820 3.548401 -3.799105
v 1.823950 3.481949 -3.722985
v 1.823950 3.481949 -3.722985
v 1.447081 3.415496 -3.799105
v 1.447081 3.415496 -3.799105
v 1.127586 3.359161 -4.015878
v 1.127586 3.359161 -4.015878
v 0.914107 3.321519 -4.340302
v 0.914107 3.321519 -4.340302
v 0.839143 3.308301 -4.722985
v 0.839143 3.308301 -4.722985
v 0.914107 3.321519 -5.105668
v 0.914107 3.321519 -5.105668
v 1.127586 3.359161 -5.430091
v 1.127586 3.359161 -5.430091
v 1.447081 3.415497 -5.646864
v 1.447081 3.415497 -5.646864
v 1.823950 3.481949 -5.722985
v 1.823950 3.481949 -5.722985
v 2.200820 3.548401 -5.646864
v 2.200820 3.548401 -5.646864
v 2.520314 3.604737 -5.430091
v 2.520314 3.604737 -5.430091
vt 0.189414 0.618436
vt 0.189414 0.727454
vt 0.176171 0.727307
vt 0.189414 0.836472
vt 0.162927 0.836178
vt 0.189414 0.890982
vt 0.156305 0.890614
vt 0.973810 0.769400
vt 0.967263 0.714917
vt 1.000000 0.713188
vt 1.000000 0.768017
vt 0.944036 0.775269
vt 0.930045 0.722254
vt 0.915209 0.784730
vt 0.894012 0.734080
vt 0.891719 0.796343
vt 0.864649 0.748596
vt 0.295606 0.768842
vt 0.275520 0.806443
vt 0.242710 0.803622
vt 0.269358 0.766585
vt 0.325080 0.776112
vt 0.312362 0.815531
vt 0.353293 0.787290
vt 0.347629 0.829504
vt 0.375950 0.800674
vt 0.375950 0.846234
vt 0.784319 0.769400
vt 0.777772 0.714917
vt 0.810509 0.713188
vt 0.810509 0.768017
vt 0.754544 0.775269
vt 0.740553 0.722254
vt 0.725718 0.784730
vt 0.704520 0.734080
vt 0.702228 0.796343
vt 0.675158 0.748596
vt 0.104350 0.820758
vt 0.083084 0.871339
vt 0.054118 0.855367
vt 0.081178 0.807980
vt 0.133056 0.830660
vt 0.118967 0.883716
vt 0.189414 0.945491
vt 0.149683 0.945049
vt 0.161235 0.724548
vt 0.146882 0.719597
vt 0.135296 0.713208
vt 0.756368 0.891837
vt 0.768113 0.886030
vt 0.810509 0.987331
vt 0.782526 0.881300
vt 0.797414 0.878366
vt 0.810509 0.877674
vt 0.375950 0.709555
vt 0.364622 0.702863
vt 0.375950 0.618436
vt 0.350515 0.697274
vt 0.335778 0.693639
vt 0.322654 0.692510
vt 0.945860 0.891837
vt 0.957605 0.886030
vt 1.000000 0.987331
vt 0.972018 0.881300
vt 0.986905 0.878365
vt 1.000000 0.877674
vt 0.104877 0.936772
vt 0.061817 0.921920
vt 0.027059 0.902753
vt 0.648087 0.700849
vt 0.683323 0.683429
vt 0.726562 0.669238
vt 0.771224 0.660434
vt 0.810509 0.658359
vt 0.375950 0.891793
vt 0.341964 0.871718
vt 0.299644 0.854950
vt 0.255433 0.844044
vt 0.216062 0.840660
vt 0.837579 0.700849
vt 0.872814 0.683430
vt 0.916054 0.669238
vt 0.960716 0.660435
vt 1.000000 0.658360
vt 0.930161 0.131295
vt 0.936408 0.130085
vt 0.936408 0.193874
vt 0.930161 0.192749
vt 0.912401 0.252598
vt 0.907032 0.249326
vt 0.868041 0.297319
vt 0.864294 0.292411
vt 0.810081 0.321228
vt 0.808455 0.315445
vt 0.747346 0.320685
vt 0.748015 0.314922
vt 0.689386 0.295773
vt 0.692175 0.290921
vt 0.645025 0.250283
vt 0.649437 0.247096
vt 0.621018 0.191143
vt 0.626308 0.190119
vt 0.621017 0.127355
vt 0.626308 0.128664
vt 0.645025 0.068630
vt 0.649437 0.072087
vt 0.689385 0.023909
vt 0.692175 0.029002
vt 0.747345 0.000000
vt 0.748014 0.005968
vt 0.810080 0.000543
vt 0.808454 0.006492
vt 0.868040 0.025456
vt 0.864294 0.030493
vt 0.912401 0.070945
vt 0.907031 0.074318
vt 0.375950 0.734134
vt 0.380678 0.671519
vt 0.435229 0.679059
vt 0.431071 0.734134
vt 0.515230 0.632369
vt 0.505532 0.679059
vt 0.450942 0.671518
vt 0.461968 0.618436
vt 0.502126 0.734134
vt 0.447070 0.734134
vt 0.505532 0.789209
vt 0.450942 0.796750
vt 0.515230 0.835899
vt 0.461968 0.849832
vt 0.918988 0.538692
vt 0.908271 0.492002
vt 0.950371 0.499542
vt 0.962556 0.552625
vt 0.904508 0.436927
vt 0.946093 0.436927
vt 0.908271 0.381852
vt 0.950371 0.374311
vt 0.918988 0.335162
vt 0.962556 0.321228
vt 0.583390 0.632369
vt 0.573692 0.679059
vt 0.519102 0.671519
vt 0.530128 0.618436
vt 0.570286 0.734134
vt 0.515230 0.734134
vt 0.573692 0.789209
vt 0.519102 0.796750
vt 0.583390 0.835899
vt 0.530128 0.849833
vt 0.447070 0.632369
vt 0.394140 0.618436
vt 0.435229 0.789209
vt 0.380678 0.796750
vt 0.447070 0.835899
vt 0.394140 0.849833
vt 0.877888 0.385740
vt 0.882933 0.382424
vt 0.904508 0.434303
vt 0.898565 0.435461
vt 0.839676 0.347685
vt 0.843064 0.342717
vt 0.789748 0.327090
vt 0.790969 0.321228
vt 0.735705 0.327090
vt 0.734581 0.321228
vt 0.685773 0.347685
vt 0.682482 0.342717
vt 0.647555 0.385740
vt 0.642606 0.382424
vt 0.626870 0.435461
vt 0.621022 0.434303
vt 0.626865 0.489279
vt 0.621017 0.490456
vt 0.647542 0.539000
vt 0.642592 0.542335
vt 0.685753 0.577055
vt 0.682461 0.582042
vt 0.735681 0.597651
vt 0.734556 0.603531
vt 0.789725 0.597651
vt 0.790945 0.603531
vt 0.839656 0.577055
vt 0.843043 0.582042
vt 0.877874 0.539001
vt 0.882919 0.542336
vt 0.898560 0.489279
vt 0.904503 0.490457
vt 0.598404 0.678115
vt 0.583390 0.678115
vt 0.583390 0.618436
vt 0.598404 0.618436
vt 0.435893 0.909512
vt 0.426901 0.900560
vt 0.426901 0.858785
vt 0.435893 0.849833
vt 0.598404 0.676507
vt 0.613466 0.676021
vt 0.613466 0.733121
vt 0.598404 0.733606
vt 0.375950 0.909512
vt 0.384942 0.900560
vt 0.598404 0.618436
vt 0.613466 0.618921
vt 0.613466 0.676021
vt 0.598404 0.675535
vt 0.384942 0.858785
vt 0.375951 0.849833
vt 0.583390 0.678115
vt 0.597737 0.678116
vt 0.597737 0.737795
vt 0.583390 0.737795
vt 0.435893 0.849833
vt 0.444877 0.858784
vt 0.444877 0.900560
vt 0.435893 0.909512
vt 0.486806 0.900560
vt 0.495790 0.909512
vt 0.495790 0.849833
vt 0.486806 0.858785
vt 0.613466 0.815837
vt 0.598404 0.815352
vt 0.598404 0.775382
vt 0.613466 0.775868
vt 0.597737 0.779571
vt 0.583390 0.779571
vt 0.583390 0.737795
vt 0.597737 0.737795
vt 0.598404 0.816323
vt 0.613466 0.815837
vt 0.613466 0.855807
vt 0.598404 0.856293
vt 0.598404 0.733606
vt 0.613418 0.733606
vt 0.613418 0.775382
vt 0.598404 0.775382
vt 0.189414 1.000000
vt 0.143062 0.999485
vt 0.954168 0.605952
vt 1.000000 0.603531
vt 0.902063 0.616222
vt 0.851616 0.632779
vt 0.810509 0.653101
vt 0.235347 0.881646
vt 0.189414 0.877697
vt 0.286927 0.894370
vt 0.336300 0.913931
vt 0.375950 0.937353
vt 0.764677 0.605952
vt 0.810509 0.603531
vt 0.712571 0.616222
vt 0.662125 0.632779
vt 0.621017 0.653101
vt 0.040551 0.972500
vt 0.000000 0.950139
vt 0.090788 0.989828
vt 0.000000 0.000000
vt 0.000000 0.000000
vt 0.000000 0.000000
vt 0.000000 0.000000
vt 0.000000 0.000000
vt 0.000000 0.000000
vt 0.000000 0.000000
vt 0.000000 0.000000
vt 0.000000 0.000000
vt 0.000000 0.000000
vt 0.000000 0.000000
vt 0.000000 0.000000
vt 0.000000 0.000000
vt 0.000000 0.000000
vt 0.000000 0.000000
vt 0.000000 0.000000
vt 0.000000 0.000000
vt 0.000000 0.000000
vt 0.000000 0.000000
vt 0.000000 0.000000
vt 0.000000 0.000000
vt 0.000000 0.000000
vt 0.000000 0.000000
vt 0.000000 0.000000
vt 0.000000 0.000000
vt 0.000000 0.000000
vt 0.000000 0.000000
vt 0.000000 0.000000
vt 0.000000 0.000000
vt 0.000000 0.000000
vt 0.000000 0.000000
vt 0.000000 0.000000
vt 0.466417 0.340088
vt 0.621017 0.370698
vt 0.573745 0.484351
vt 0.442781 0.396914
vt 0.466418 0.278581
vt 0.621017 0.247686
vt 0.442781 0.221759
vt 0.573745 0.134041
vt 0.399108 0.178271
vt 0.486398 0.047065
vt 0.342045 0.154739
vt 0.372273 0.000000
vt 0.280281 0.154744
vt 0.248745 0.000011
vt 0.223219 0.178286
vt 0.134620 0.047095
vt 0.179545 0.221781
vt 0.047272 0.134085
vt 0.155909 0.278607
vt 0.000000 0.247738
vt 0.155909 0.340114
vt 0.000000 0.370750
vt 0.179545 0.396936
vt 0.047272 0.484395
vt 0.223219 0.440424
vt 0.134620 0.571371
vt 0.280281 0.463956
vt 0.248745 0.618436
vt 0.342045 0.463951
vt 0.372273 0.618425
vt 0.399108 0.440409
vt 0.486398 0.571341
vn -0.1737 0.9848 0.0000
vn 0.5876 0.4681 0.6600
vn 0.7869 0.5033 0.3572
vn 0.2894 0.4155 0.8623
vn -0.0623 0.3535 0.9333
vn -0.4141 0.2915 0.8623
vn -0.7123 0.2389 0.6600
vn -0.9115 0.2038 0.3572
vn -0.9815 0.1915 -0.0000
vn -0.9115 0.2038 -0.3572
vn -0.7123 0.2389 -0.6600
vn -0.4141 0.2915 -0.8623
vn -0.0623 0.3535 -0.9333
vn 0.2894 0.4155 -0.8623
vn 0.5876 0.4681 -0.6600
vn 0.7869 0.5033 -0.3572
vn 0.8568 0.5156 -0.0000
vn 0.5156 -0.8568 0.0000
vn 0.4887 -0.8616 0.1374
vn 0.4121 -0.8751 0.2538
vn 0.2974 -0.8953 0.3316
vn 0.1621 -0.9192 0.3590
vn 0.0268 -0.9430 0.3317
vn -0.0879 -0.9632 0.2538
vn -0.1645 -0.9768 0.1374
vn -0.1915 -0.9815 -0.0000
vn -0.1645 -0.9768 -0.1374
vn -0.0879 -0.9632 -0.2538
vn 0.0268 -0.9430 -0.3317
vn 0.1621 -0.9192 -0.3590
vn 0.2974 -0.8953 -0.3317
vn 0.4121 -0.8751 -0.2538
vn 0.4887 -0.8616 -0.1374
vn -0.4121 0.8751 -0.2538
vn -0.4887 0.8616 -0.1374
vn -0.2974 0.8953 -0.3317
vn -0.1621 0.9192 -0.3590
vn -0.0268 0.9430 -0.3316
vn 0.0879 0.9632 -0.2538
vn 0.1645 0.9768 -0.1374
vn 0.1915 0.9815 0.0000
vn 0.1645 0.9768 0.1374
vn 0.0879 0.9632 0.2538
vn -0.0268 0.9430 0.3317
vn -0.1621 0.9192 0.3590
vn -0.2974 0.8953 0.3317
vn -0.4121 0.8751 0.2538
vn -0.4887 0.8616 0.1374
vn -0.5156 0.8568 -0.0000
vn -0.5030 -0.7618 -0.4083
vn 0.9112 0.0547 -0.4082
vn 0.9112 0.0547 0.4083
vn -0.5030 -0.7618 0.4082
vn -0.9112 -0.0547 0.4083
vn -0.5030 -0.7618 0.4083
vn -0.9112 -0.0547 -0.4082
vn 0.5030 0.7618 0.4082
vn -0.9112 -0.0547 0.4082
vn -0.9112 -0.0547 -0.4083
vn 0.5030 0.7618 -0.4082
vn -0.5030 -0.7618 -0.4082
vn 0.5030 0.7618 0.4083
vn 0.9112 0.0547 -0.4083
vn 0.9112 0.0547 0.4082
vn 0.0000 0.0000 1.0000
vn 0.0229 0.9997 -0.0000
vn 0.0082 0.9971 -0.0751
vn 0.0082 0.9971 0.0751
vn -0.0337 0.9898 0.1387
vn -0.0964 0.9787 0.1812
vn -0.1703 0.9657 0.1961
vn -0.2442 0.9527 0.1812
vn -0.3068 0.9416 0.1387
vn -0.3487 0.9342 0.0751
vn -0.3634 0.9316 -0.0000
vn -0.3487 0.9342 -0.0751
vn -0.3068 0.9416 -0.1387
vn -0.2442 0.9527 -0.1812
vn -0.1703 0.9657 -0.1961
vn -0.0964 0.9787 -0.1812
vn -0.0337 0.9898 -0.1387
g Cylinder11.001_Cylinder11.001_HatMat
usemtl HatMat
s 1
f 1/1/1 2/2/2 3/3/3
f 4/4/2 5/5/3 3/3/3 2/2/2
f 4/4/2 6/6/2 7/7/3 5/5/3
f 8/8/4 9/9/4 6/10/2 4/11/2
f 10/12/5 11/13/5 9/9/4 8/8/4
f 12/14/6 13/15/6 11/13/5 10/12/5
f 14/16/7 15/17/7 13/15/6 12/14/6
f 16/18/8 17/19/8 15/20/7 14/21/7
f 18/22/9 19/23/9 17/19/8 16/18/8
f 20/24/10 21/25/10 19/23/9 18/22/9
f 22/26/11 23/27/11 21/25/10 20/24/10
f 24/28/12 25/29/12 23/30/11 22/31/11
f 26/32/13 27/33/13 25/29/12 24/28/12
f 28/34/14 29/35/14 27/33/13 26/32/13
f 30/36/15 31/37/15 29/35/14 28/34/14
f 32/38/16 33/39/16 31/40/15 30/41/15
f 34/42/17 35/43/17 33/39/16 32/38/16
f 5/5/3 7/7/3 35/43/17 34/42/17
f 36/44/2 37/45/3 7/7/3 6/6/2
f 3/3/3 38/46/17 1/1/1
f 38/46/17 3/3/3 5/5/3 34/42/17
f 38/46/17 39/47/16 1/1/1
f 39/47/16 38/46/17 34/42/17 32/38/16
f 39/47/16 40/48/15 1/1/1
f 40/48/15 39/47/16 32/38/16 30/41/15
f 40/49/15 41/50/14 1/51/1
f 41/50/14 40/49/15 30/36/15 28/34/14
f 41/50/14 42/52/13 1/51/1
f 42/52/13 41/50/14 28/34/14 26/32/13
f 42/52/13 43/53/12 1/51/1
f 43/53/12 42/52/13 26/32/13 24/28/12
f 43/53/12 44/54/11 1/51/1
f 44/54/11 43/53/12 24/28/12 22/31/11
f 44/55/11 45/56/10 1/57/1
f 45/56/10 44/55/11 22/26/11 20/24/10
f 45/56/10 46/58/9 1/57/1
f 46/58/9 45/56/10 20/24/10 18/22/9
f 46/58/9 47/59/8 1/57/1
f 47/59/8 46/58/9 18/22/9 16/18/8
f 47/59/8 48/60/7 1/57/1
f 48/60/7 47/59/8 16/18/8 14/21/7
f 48/61/7 49/62/6 1/63/1
f 49/62/6 48/61/7 14/16/7 12/14/6
f 49/62/6 50/64/5 1/63/1
f 50/64/5 49/62/6 12/14/6 10/12/5
f 50/64/5 51/65/4 1/63/1
f 51/65/4 50/64/5 10/12/5 8/8/4
f 51/65/4 2/66/2 1/63/1
f 2/66/2 51/65/4 8/8/4 4/11/2
f 35/43/17 7/7/3 37/45/3 52/67/17
f 33/39/16 35/43/17 52/67/17 53/68/16
f 31/40/15 33/39/16 53/68/16 54/69/15
f 29/35/14 31/37/15 54/70/15 55/71/14
f 27/33/13 29/35/14 55/71/14 56/72/13
f 25/29/12 27/33/13 56/72/13 57/73/12
f 23/30/11 25/29/12 57/73/12 58/74/11
f 21/25/10 23/27/11 58/75/11 59/76/10
f 19/23/9 21/25/10 59/76/10 60/77/9
f 17/19/8 19/23/9 60/77/9 61/78/8
f 15/20/7 17/19/8 61/78/8 62/79/7
f 13/15/6 15/17/7 62/80/7 63/81/6
f 11/13/5 13/15/6 63/81/6 64/82/5
f 9/9/4 11/13/5 64/82/5 65/83/4
f 6/10/2 9/9/4 65/83/4 36/84/2
f 66/85/18 67/86/18 68/87/19 69/88/19
f 69/88/19 68/87/19 70/89/20 71/90/20
f 71/90/20 70/89/20 72/91/21 73/92/21
f 73/92/21 72/91/21 74/93/22 75/94/22
f 75/94/22 74/93/22 76/95/23 77/96/23
f 77/96/23 76/95/23 78/97/24 79/98/24
f 79/98/24 78/97/24 80/99/25 81/100/25
f 81/100/25 80/99/25 82/101/26 83/102/26
f 83/102/26 82/101/26 84/103/27 85/104/27
f 85/104/27 84/103/27 86/105/28 87/106/28
f 87/106/28 86/105/28 88/107/29 89/108/29
f 89/108/29 88/107/29 90/109/30 91/110/30
f 91/110/30 90/109/30 92/111/31 93/112/31
f 93/112/31 92/111/31 94/113/32 95/114/32
f 95/114/32 94/113/32 96/115/33 97/116/33
f 97/116/33 96/115/33 67/86/18 66/85/18
f 67/117/17 96/118/16 98/119/16 99/120/17
f 100/121/2 101/122/4 72/123/4 70/124/2
f 101/122/4 102/125/5 74/126/5 72/123/4
f 102/125/5 103/127/6 76/128/6 74/126/5
f 103/127/6 104/129/7 78/130/7 76/128/6
f 104/131/7 105/132/8 80/133/8 78/134/7
f 105/132/8 106/135/9 82/136/9 80/133/8
f 106/135/9 107/137/10 84/138/10 82/136/9
f 107/137/10 108/139/11 86/140/11 84/138/10
f 108/141/11 109/142/12 88/143/12 86/144/11
f 109/142/12 110/145/13 90/146/13 88/143/12
f 110/145/13 111/147/14 92/148/14 90/146/13
f 111/147/14 112/149/15 94/150/15 92/148/14
f 112/151/15 98/119/16 96/118/16 94/152/15
f 99/120/17 113/153/3 68/154/3 67/117/17
f 113/153/3 100/155/2 70/156/2 68/154/3
f 114/157/34 100/158/34 113/159/35 115/160/35
f 116/161/36 101/162/36 100/158/34 114/157/34
f 117/163/37 102/164/37 101/162/36 116/161/36
f 118/165/38 103/166/38 102/164/37 117/163/37
f 119/167/39 104/168/39 103/166/38 118/165/38
f 120/169/40 105/170/40 104/168/39 119/167/39
f 121/171/41 106/172/41 105/170/40 120/169/40
f 122/173/42 107/174/42 106/172/41 121/171/41
f 123/175/43 108/176/43 107/174/42 122/173/42
f 124/177/44 109/178/44 108/176/43 123/175/43
f 125/179/45 110/180/45 109/178/44 124/177/44
f 126/181/46 111/182/46 110/180/45 125/179/45
f 127/183/47 112/184/47 111/182/46 126/181/46
f 128/185/48 98/186/48 112/184/47 127/183/47
f 129/187/49 99/188/49 98/186/48 128/185/48
f 115/160/35 113/159/35 99/188/49 129/187/49
f 130/189/50 131/190/51 132/191/52 133/192/53
f 130/193/50 134/194/54 135/195/55 136/196/56
f 133/197/53 132/198/52 137/199/57 138/200/58
f 133/201/53 139/202/59 134/194/54 130/193/50
f 136/203/56 140/204/60 131/205/51 130/206/50
f 136/196/56 135/195/55 141/207/61 138/208/58
f 138/209/58 137/210/57 140/211/60 136/212/56
f 138/208/58 141/207/61 139/202/59 133/201/53
f 131/213/51 142/214/62 143/215/60 132/216/52
f 132/216/52 143/215/60 144/217/63 137/218/57
f 140/219/60 145/220/64 142/214/62 131/213/51
f 137/218/57 144/217/63 145/220/64 140/219/60
f 143/221/60 139/222/59 141/223/61 144/224/63
f 142/225/62 134/226/54 139/227/59 143/228/60
f 145/229/64 135/230/55 134/231/54 142/232/62
f 144/233/63 141/234/61 135/235/55 145/236/64
f 36/44/2 114/237/2 115/238/3 37/45/3
f 65/83/4 116/239/4 114/240/2 36/84/2
f 64/82/5 117/241/5 116/239/4 65/83/4
f 63/81/6 118/242/6 117/241/5 64/82/5
f 62/80/7 119/243/7 118/242/6 63/81/6
f 61/78/8 120/244/8 119/245/7 62/79/7
f 60/77/9 121/246/9 120/244/8 61/78/8
f 59/76/10 122/247/10 121/246/9 60/77/9
f 58/75/11 123/248/11 122/247/10 59/76/10
f 57/73/12 124/249/12 123/250/11 58/74/11
f 56/72/13 125/251/13 124/249/12 57/73/12
f 55/71/14 126/252/14 125/251/13 56/72/13
f 54/70/15 127/253/15 126/252/14 55/71/14
f 53/68/16 128/254/16 127/255/15 54/69/15
f 52/67/17 129/256/17 128/254/16 53/68/16
f 37/45/3 115/238/3 129/256/17 52/67/17
f 146/257/65 147/258/65 148/259/65 149/260/65
f 150/261/65 151/262/65 147/258/65 146/257/65
f 152/263/65 153/264/65 151/262/65 150/261/65
f 154/265/65 155/266/65 153/264/65 152/263/65
f 156/267/65 157/268/65 155/266/65 154/265/65
f 158/269/65 159/270/65 157/268/65 156/267/65
f 160/271/65 161/272/65 159/270/65 158/269/65
f 162/273/65 163/274/65 161/272/65 160/271/65
f 164/275/65 165/276/65 163/274/65 162/273/65
f 166/277/65 167/278/65 165/276/65 164/275/65
f 168/279/65 169/280/65 167/278/65 166/277/65
f 170/281/65 171/282/65 169/280/65 168/279/65
f 172/283/65 173/284/65 171/282/65 170/281/65
f 174/285/65 175/286/65 173/284/65 172/283/65
f 176/287/65 177/288/65 175/286/65 174/285/65
f 149/260/65 148/259/65 177/288/65 176/287/65
f 66/289/66 146/290/66 149/291/67 97/292/67
f 69/293/68 150/294/68 146/290/66 66/289/66
f 71/295/69 152/296/69 150/294/68 69/293/68
f 73/297/70 154/298/70 152/296/69 71/295/69
f 75/299/71 156/300/71 154/298/70 73/297/70
f 77/301/72 158/302/72 156/300/71 75/299/71
f 79/303/73 160/304/73 158/302/72 77/301/72
f 81/305/74 162/306/74 160/304/73 79/303/73
f 83/307/75 164/308/75 162/306/74 81/305/74
f 85/309/76 166/310/76 164/308/75 83/307/75
f 87/311/77 168/312/77 166/310/76 85/309/76
f 89/313/78 170/314/78 168/312/77 87/311/77
f 91/315/79 172/316/79 170/314/78 89/313/78
f 93/317/80 174/318/80 172/316/79 91/315/79
f 95/319/81 176/320/81 174/318/80 93/317/80
f 97/292/67 149/291/67 176/320/81 95/319/81
