# Exported from Wings 3D 2.2.4
mtllib 3_block_line.mtl
o Cube1
#16 vertices, 14 faces
v -1.00000000 0.0000000e+0 -1.00000000
v -1.00000000 0.0000000e+0 1.00000000
v -1.00000000 2.00000000 -1.00000000
v -1.00000000 2.00000000 1.00000000
v 1.00000000 0.0000000e+0 -1.00000000
v 1.00000000 0.0000000e+0 1.00000000
v 1.00000000 2.00000000 -1.00000000
v 1.00000000 2.00000000 1.00000000
v -1.00000000 2.00000000 3.00000000
v -1.00000000 0.0000000e+0 3.00000000
v 1.00000000 0.0000000e+0 3.00000000
v 1.00000000 2.00000000 3.00000000
v -1.00000000 0.0000000e+0 -3.00000000
v -1.00000000 2.00000000 -3.00000000
v 1.00000000 2.00000000 -3.00000000
v 1.00000000 0.0000000e+0 -3.00000000
vn -0.70710678 -0.70710678 0.0000000e+0
vn -0.70710678 -0.70710678 0.0000000e+0
vn -0.70710678 0.70710678 0.0000000e+0
vn -0.70710678 0.70710678 0.0000000e+0
vn 0.70710678 -0.70710678 0.0000000e+0
vn 0.70710678 -0.70710678 0.0000000e+0
vn 0.70710678 0.70710678 0.0000000e+0
vn 0.70710678 0.70710678 0.0000000e+0
vn -0.57735027 0.57735027 0.57735027
vn -0.57735027 -0.57735027 0.57735027
vn 0.57735027 -0.57735027 0.57735027
vn 0.57735027 0.57735027 0.57735027
vn -0.57735027 -0.57735027 -0.57735027
vn -0.57735027 0.57735027 -0.57735027
vn 0.57735027 0.57735027 -0.57735027
vn 0.57735027 -0.57735027 -0.57735027
g Cube1_default
usemtl default
s 1
f 1//1 5//5 6//6 2//2
f 1//1 13//13 16//16 5//5
f 2//2 4//4 3//3 1//1
f 2//2 10//10 9//9 4//4
f 3//3 14//14 13//13 1//1
f 4//4 8//8 7//7 3//3
f 4//4 9//9 12//12 8//8
f 5//5 7//7 8//8 6//6
f 5//5 16//16 15//15 7//7
f 6//6 11//11 10//10 2//2
f 7//7 15//15 14//14 3//3
f 8//8 12//12 11//11 6//6
f 10//10 11//11 12//12 9//9
f 14//14 15//15 16//16 13//13
